<?xml version="1.0" encoding="UTF-8"?>
<svg version="1.1" xmlns="http://www.w3.org/2000/svg" width="50" height="50">
<path d="M0 0 C3.48215658 2.01143206 5.51258268 4.34916395 6.65625 8.22265625 C7.30037402 12.60709132 7.26745182 16.06179421 5 20 C4.34 20.66 3.68 21.32 3 22 C4.258125 22.37125 5.51625 22.7425 6.8125 23.125 C10.07991612 24.35897098 10.9083177 24.87497869 13.0625 27.8125 C14.15185444 31.5163051 14.24403394 33.34565031 13 37 C10.98830965 39.66788517 9.38712282 41.67376365 6.03170776 42.46292114 C3.64133606 42.64501669 1.29938664 42.66689409 -1.09765625 42.62890625 C-2.4045768 42.63252419 -2.4045768 42.63252419 -3.73789978 42.63621521 C-5.57441778 42.63523826 -7.41096578 42.62188078 -9.24731445 42.59692383 C-12.05716918 42.56256518 -14.86388607 42.57628353 -17.67382812 42.59570312 C-19.46095087 42.58880567 -21.24806552 42.57913418 -23.03515625 42.56640625 C-23.87377701 42.57136612 -24.71239777 42.57632599 -25.57643127 42.58143616 C-31.38147691 42.46423591 -31.38147691 42.46423591 -34.52709961 40.10327148 C-36.69046997 37.01402308 -36.55755602 34.79394471 -36.39453125 31.12890625 C-36 29 -36 29 -34.1875 26.4375 C-32 25 -32 25 -29 25 C-28.99742188 24.40832031 -28.99484375 23.81664063 -28.9921875 23.20703125 C-28.68361558 16.90187839 -28.68361558 16.90187839 -26.703125 14.2890625 C-24.06249026 12.02752879 -22.5198954 11 -19 11 C-18.95875 10.113125 -18.9175 9.22625 -18.875 8.3125 C-17.66249778 3.72231303 -15.85251361 2.69675953 -12 0 C-7.78056096 -1.40647968 -4.28082522 -1.1595421 0 0 Z " fill="#A4D2F3" transform="translate(36,8)"/>
<path d="M0 0 C3.48215658 2.01143206 5.51258268 4.34916395 6.65625 8.22265625 C7.30037402 12.60709132 7.26745182 16.06179421 5 20 C4.34 20.66 3.68 21.32 3 22 C2.01 22 1.02 22 0 22 C0 21.01 0 20.02 0 19 C-3.3 18.67 -6.6 18.34 -10 18 C-10.185625 17.21625 -10.37125 16.4325 -10.5625 15.625 C-11.83961627 12.60623658 -11.83961627 12.60623658 -15.625 11.6875 C-16.73875 11.460625 -17.8525 11.23375 -19 11 C-18.86297357 8.05393171 -18.70124445 5.79840482 -16.703125 3.5234375 C-11.2445111 -1.09746833 -6.76070023 -1.83126292 0 0 Z " fill="#F9D027" transform="translate(36,8)"/>
<path d="M0 0 C0.79664063 0.07863281 1.59328125 0.15726562 2.4140625 0.23828125 C3.38472656 0.46064453 3.38472656 0.46064453 4.375 0.6875 C4.705 1.3475 5.035 2.0075 5.375 2.6875 C4.65054688 2.61789062 3.92609375 2.54828125 3.1796875 2.4765625 C-2.48737237 2.05034485 -2.48737237 2.05034485 -7.69140625 3.91796875 C-9.56053192 5.65283056 -9.56053192 5.65283056 -11.625 8.6875 C-11.625 9.6775 -11.625 10.6675 -11.625 11.6875 C-12.615 11.6875 -13.605 11.6875 -14.625 11.6875 C-14.48797357 8.74143171 -14.32624445 6.48590482 -12.328125 4.2109375 C-8.1995136 0.71592488 -5.31791746 -0.58029393 0 0 Z " fill="#EED044" transform="translate(31.625,7.3125)"/>
<path d="M0 0 C0.66 0.309375 1.32 0.61875 2 0.9375 C4.61454232 1.86348374 6.4164217 2.17010755 9.125 2.375 C13 3 13 3 15 5.0625 C15.33 5.701875 15.66 6.34125 16 7 C14.68 7.33 13.36 7.66 12 8 C12 7.01 12 6.02 12 5 C11.30132812 4.97421875 10.60265625 4.9484375 9.8828125 4.921875 C8.97273438 4.86515625 8.06265625 4.8084375 7.125 4.75 C5.76761719 4.68039063 5.76761719 4.68039063 4.3828125 4.609375 C2 4 2 4 0.6796875 1.953125 C0.45539062 1.30859375 0.23109375 0.6640625 0 0 Z " fill="#E0D064" transform="translate(24,22)"/>
<path d="M0 0 C0.99 0 1.98 0 3 0 C2.42655063 2.86724686 2.1385485 3.8614515 0 6 C-0.99 6 -1.98 6 -3 6 C-2.42655063 3.13275314 -2.1385485 2.1385485 0 0 Z " fill="#F5CF3A" transform="translate(43,4)"/>
<path d="M0 0 C2.86724686 0.57344937 3.8614515 0.8614515 6 3 C6 3.99 6 4.98 6 6 C3.37812506 4.95125002 2.20628639 4.35068687 0.75 1.875 C0.5025 1.25625 0.255 0.6375 0 0 Z " fill="#F7CF34" transform="translate(13,4)"/>
<path d="M0 0 C1.98 0 3.96 0 6 0 C6 0.99 6 1.98 6 3 C4.35 3 2.7 3 1 3 C0.67 2.01 0.34 1.02 0 0 Z " fill="#F6CE2C" transform="translate(44,19)"/>
<path d="M0 0 C0.99 0 1.98 0 3 0 C3 1.65 3 3.3 3 5 C2.01 5 1.02 5 0 5 C0 3.35 0 1.7 0 0 Z " fill="#F9CF2E" transform="translate(28,0)"/>
</svg>
